<svg width="167" height="162" viewBox="0 0 167 162" fill="none" xmlns="http://www.w3.org/2000/svg">
<path fill-rule="evenodd" clip-rule="evenodd" d="M122.944 71.339C127.685 62.0274 131.843 52.1823 139.384 44.7201C139.831 44.2742 139.837 43.5512 139.393 43.0994C138.946 42.652 138.223 42.6456 137.771 43.0894C130.056 50.7266 125.751 60.7705 120.9 70.2989C120.611 70.8609 120.838 71.5537 121.403 71.8395C121.965 72.1294 122.654 71.9007 122.944 71.339Z" fill="#CFEAFF"/>
<path fill-rule="evenodd" clip-rule="evenodd" d="M108.849 65.6264C107.553 61.394 107.063 57.2187 107.915 52.8636C108.037 52.2416 107.631 51.6409 107.012 51.5166C106.39 51.3968 105.787 51.8036 105.667 52.4213C104.74 57.1568 105.251 61.6927 106.659 66.293C106.843 66.8996 107.484 67.2421 108.09 67.0546C108.693 66.8719 109.036 66.2285 108.849 65.6264Z" fill="#CFEAFF"/>
<path fill-rule="evenodd" clip-rule="evenodd" d="M75.4139 59.6494C71.4403 56.0894 69.0976 51.7064 68.4354 46.3927C68.3572 45.7656 67.7847 45.3187 67.1564 45.3984C66.5301 45.4742 66.0835 46.0477 66.1619 46.6742C66.896 52.5559 69.4854 57.4125 73.885 61.354C74.3551 61.7772 75.082 61.7345 75.5028 61.2658C75.926 60.7933 75.8861 60.0682 75.4139 59.6494Z" fill="#CFEAFF"/>
<path fill-rule="evenodd" clip-rule="evenodd" d="M46.9112 103.045C47.4709 104.299 48.1433 105.504 48.9329 106.634C49.2842 107.138 50.0789 108.108 50.9216 108.603C51.8178 109.134 52.7596 109.194 53.5673 108.576C54.6391 107.754 54.9972 106.859 54.9843 106.03C54.9727 105.232 54.5846 104.427 53.893 103.705C52.5707 102.324 50.0617 101.234 48.5024 100.878C48.0292 99.5997 47.6778 98.2785 47.447 96.9338C45.7281 86.9185 52.9371 76.8902 64.9061 72.2508C69.0962 70.6277 75.6048 71.9997 82.2469 74.2737C92.5895 77.8129 103.21 83.7095 106.37 85.3356C107.151 85.7353 107.656 85.8855 107.77 85.8894C108.324 85.9164 108.609 85.631 108.769 85.4131C108.997 85.096 109.063 84.7875 109.054 84.5092C109.04 84.1319 108.879 83.75 108.504 83.4278C108.296 83.2519 107.972 83.0762 107.614 82.9152C107.366 82.8062 107.074 82.7274 106.922 82.5936C105.951 81.732 105.039 80.8175 104.114 79.9074C101.002 76.8574 98.3024 73.5476 95.6939 70.0576C87.4042 58.9708 78.3974 47.7737 74.515 34.2488C74.3407 33.6421 73.7066 33.2876 73.098 33.463C72.4913 33.6345 72.1399 34.2681 72.3125 34.8794C76.2705 48.6741 85.4053 60.1207 93.8587 71.4279C96.078 74.3958 98.3628 77.2376 100.899 79.9053C95.4689 77.1561 87.8513 73.5619 80.6497 71.345C74.2453 69.3726 68.1496 68.5388 64.0763 70.1165C50.9646 75.1985 43.3043 86.3512 45.1891 97.3195C45.3911 98.4929 45.675 99.6548 46.0445 100.787C36.2527 101.361 28.7572 109.043 28.5761 118.919C28.5636 119.553 29.0681 120.074 29.6997 120.087C30.3332 120.096 30.8551 119.595 30.8676 118.961C31.031 110.061 37.9757 103.207 46.9112 103.045ZM49.7893 103.688C50.1018 104.249 50.4436 104.794 50.8118 105.326C51.0106 105.609 51.4067 106.124 51.865 106.48C51.973 106.563 52.1587 106.657 52.2455 106.698C52.5225 106.481 52.6972 106.29 52.6929 106.065C52.6893 105.784 52.4803 105.541 52.2382 105.288C51.6312 104.652 50.6919 104.09 49.7893 103.688Z" fill="#CFEAFF"/>
</svg>
