<svg width="78" height="79" viewBox="0 0 78 79" fill="none" xmlns="http://www.w3.org/2000/svg">
<path d="M59.6119 34.2788C58.5018 35.3957 57.6518 36.7437 57.1222 38.2264C56.5926 39.7094 56.3966 41.2908 56.5481 42.8581L56.4954 42.8054C56.6512 44.6504 56.4022 46.5069 55.7663 48.2459C55.1304 49.9846 54.1228 51.5636 52.8138 52.8729C51.5045 54.1819 49.9254 55.1898 48.1864 55.8254C46.4477 56.4613 44.591 56.7103 42.7463 56.5545L42.799 56.6072C40.5922 56.4019 38.3758 56.8819 36.4517 57.9824C34.5279 59.0829 32.9901 60.7498 32.0484 62.7562C31.1067 64.7626 30.8065 67.0104 31.189 69.1937C31.5718 71.3768 32.6184 73.3888 34.1863 74.9552C35.7543 76.5217 37.7671 77.5665 39.9505 77.947C42.1341 78.3278 44.3816 78.0255 46.3871 77.082C48.3927 76.1383 50.0581 74.5994 51.1568 72.6744C52.2555 70.7494 52.7338 68.5326 52.5265 66.3259L52.5821 66.3786C52.4263 64.5339 52.675 62.6771 53.3109 60.9381C53.9468 59.1994 54.9547 57.6204 56.2637 56.3111C57.573 55.0021 59.152 53.9942 60.8907 53.3586C62.6297 52.7227 64.4862 52.4737 66.3312 52.6295L66.2756 52.5768C68.0781 52.7388 69.8927 52.4432 71.5508 51.7174C73.2087 50.9916 74.6568 49.8589 75.7605 48.4245C76.8642 46.9902 77.5882 45.3001 77.8647 43.5116C78.1415 41.7228 77.9623 39.8933 77.3437 38.1921C76.725 36.4912 75.687 34.9739 74.3258 33.7809C72.9647 32.5879 71.3244 31.7578 69.557 31.3676C67.7896 30.9775 65.9522 31.0396 64.2152 31.5484C62.4783 32.0574 60.8981 32.9965 59.6207 34.2788H59.6119Z" fill="white"/>
<path d="M38.0038 49.7004L37.9482 49.6476C39.5161 49.8055 41.0996 49.6131 42.5843 49.0841C44.0688 48.5551 45.4173 47.703 46.5321 46.5891C47.6466 45.4752 48.5002 44.1272 49.03 42.643C49.5602 41.1589 49.7538 39.5757 49.5971 38.0075L49.6528 38.0602C49.4969 36.2152 49.7459 34.3587 50.3815 32.6197C51.0174 30.881 52.0253 29.302 53.3343 27.9927C54.6436 26.6837 56.2227 25.6758 57.9614 25.0402C59.7004 24.4041 61.5568 24.1554 63.4019 24.3111L63.3462 24.2584C65.5533 24.4658 67.7703 23.987 69.6953 22.8879C71.6206 21.7887 73.1595 20.1224 74.1027 18.1164C75.0458 16.1104 75.3472 13.8622 74.9659 11.6786C74.5845 9.49492 73.5388 7.48212 71.9712 5.91465C70.4038 4.34721 68.391 3.30142 66.2073 2.91999C64.0237 2.53854 61.7756 2.83997 59.7695 3.78319C57.7634 4.72638 56.0973 6.26547 54.998 8.19049C53.8988 10.1155 53.4202 12.3327 53.6275 14.5397L53.5748 14.4841C53.7309 16.329 53.4825 18.1859 52.8469 19.925C52.2113 21.664 51.2034 23.2433 49.8944 24.5528C48.5851 25.8618 47.0058 26.8697 45.2668 27.5053C43.5275 28.1409 41.6707 28.3893 39.8257 28.2331L39.8784 28.2888C38.3105 28.1309 36.7267 28.3234 35.2423 28.8524C33.7578 29.3811 32.4093 30.2334 31.2945 31.3473C30.1797 32.4613 29.3264 33.8092 28.7963 35.2934C28.2664 36.7776 28.0728 38.3607 28.2295 39.929L28.1768 39.8762C28.332 41.721 28.0827 43.5774 27.4468 45.3161C26.8106 47.0545 25.803 48.6336 24.494 49.9426C23.1849 51.2516 21.606 52.2592 19.8674 52.8954C18.1289 53.5313 16.2724 53.7806 14.4277 53.6253L14.4804 53.678C12.2734 53.4707 10.0562 53.9493 8.13115 55.0486C6.20616 56.1479 4.66708 57.8139 3.72389 59.82C2.78067 61.8262 2.47921 64.0742 2.86066 66.2579C3.24211 68.4415 4.28791 70.4543 5.85535 72.0217C7.42282 73.5893 9.43562 74.635 11.6193 75.0164C13.8029 75.3978 16.0511 75.0964 18.0571 74.1532C20.0631 73.21 21.7294 71.6711 22.8286 69.7461C23.9278 67.8208 24.4065 65.6038 24.1991 63.3967L24.2547 63.4495C24.0989 61.6044 24.3479 59.748 24.9838 58.009C25.6194 56.2703 26.6273 54.6912 27.9363 53.3819C29.2456 52.0729 30.8247 51.065 32.5634 50.4294C34.3024 49.7935 36.1588 49.5445 38.0038 49.7004Z" fill="white"/>
<path d="M18.3736 43.8218C19.4837 42.7053 20.3337 41.3573 20.8628 39.8743C21.3919 38.3913 21.5871 36.8096 21.4345 35.2426L21.4901 35.2953C21.3342 33.45 21.5831 31.5927 22.2193 29.8534C22.8556 28.1141 23.8638 26.5347 25.1737 25.2254C26.4836 23.9162 28.0632 22.9086 29.8028 22.2731C31.5424 21.6377 33.3997 21.3896 35.2451 21.5462L35.1894 21.4935C37.3956 21.7002 39.612 21.2213 41.5361 20.1222C43.4602 19.0231 44.9983 17.3573 45.9412 15.3519C46.8837 13.3465 47.1849 11.0991 46.8035 8.91629C46.4221 6.73345 45.3764 4.72141 43.8097 3.15453C42.2429 1.58765 40.2306 0.542203 38.0479 0.160779C35.8651 -0.220675 33.6177 0.0804925 31.6124 1.02313C29.6069 1.96576 27.9411 3.50403 26.8421 5.42814C25.7428 7.35225 25.2639 9.56857 25.4707 11.7748L25.418 11.7221C25.5738 13.567 25.3249 15.4236 24.689 17.1624C24.053 18.9013 23.0455 20.4803 21.7363 21.7895C20.4272 23.0987 18.848 24.1064 17.1092 24.7421C15.3704 25.378 13.5138 25.627 11.6689 25.4712L11.7216 25.5239C9.91899 25.3622 8.10469 25.6583 6.44689 26.3845C4.78909 27.1106 3.34139 28.2435 2.23798 29.6782C1.13457 31.1126 0.411143 32.8027 0.134697 34.5912C-0.14172 36.3799 0.0378032 38.2094 0.656629 39.9101C1.27546 41.611 2.31361 43.1279 3.67484 44.3207C5.03607 45.5137 6.67635 46.3435 8.4437 46.7336C10.211 47.1235 12.0482 47.0611 13.7851 46.5523C15.5219 46.0433 17.1021 45.1042 18.3794 43.8218H18.3736Z" fill="white"/>
</svg>
